# AST/ASF file generated using VICON BodyLanguage
# -----------------------------------------------
:version 1.10
:name VICON
:units
  mass 1.0
  length 0.45
  angle deg
:documentation
   .ast/.asf automatically generated from VICON data using
   VICON BodyBuilder and BodyLanguage model FoxedUp or BRILLIANT.MOD
:root
   order TX TY TZ RX RY RZ
   axis XYZ
   position 0 0 0  
   orientation 0 0 0 
:bonedata
  begin
     id 1 
     name lhipjoint
     direction 0.621036 -0.695554 0.361275 
     length 2.46325 
     axis 0 0 0  XYZ
  end
  begin
     id 2 
     name lfemur
     direction 0.34202 -0.939693 0  
     length 6.54784  
     axis 0 0 20  XYZ
    dof rx ry rz
    limits (-160.0 20.0)
           (-70.0 70.0)
           (-60.0 70.0)
  end
  begin
     id 3 
     name ltibia
     direction 0.34202 -0.939693 0   
     length 7.84737   
     axis 0 0 20   XYZ
    dof rx
    limits (-10.0 170.0)
  end
  begin
     id 4 
     name lfoot
     direction 0.0790693 -0.217241 0.97291   
     length 2.59747   
     axis -90 7.62852e-016 20   XYZ
    dof rx rz
    limits (-45.0 90.0)
           (-70.0 20.0)
  end
  begin
     id 5 
     name ltoes
     direction 1.53572e-011 -4.21898e-011 1   
     length 1.29919   
     axis -90 7.62852e-016 20   XYZ
    dof rx
    limits (-90.0 20.0)
  end
  begin
     id 6 
     name rhipjoint
     direction -0.602353 -0.708375 0.367935   
     length 2.41867  
     axis 0 0 0  XYZ 
  end
  begin
     id 7 
     name rfemur
     direction -0.34202 -0.939693 0   
     length 6.92065   
     axis 0 0 -20   XYZ
    dof rx ry rz
    limits (-160.0 20.0)
           (-70.0 70.0)
           (-70.0 60.0)
  end
  begin
     id 8 
     name rtibia
     direction -0.34202 -0.939693 0   
     length 7.88883   
     axis 0 0 -20   XYZ
    dof rx
    limits (-10.0 170.0)
 end
 begin
     id 9 
     name rfoot
     direction -0.0768692 -0.211196 0.974416   
     length 2.43714  
     axis -90 -7.62852e-016 -20   XYZ
    dof rx rz
    limits (-45.0 90.0)
           (-20.0 70.0)
  end
  begin
     id 10 
     name rtoes
     direction -1.53575e-011 -4.21933e-011 1   
     length 1.22113   
     axis -90 -7.62852e-016 -20   XYZ
    dof rx
    limits (-90.0 20.0)
  end
  begin
     id 11 
     name lowerback
     direction 0.0197937 0.98943 -0.143655   
     length 2.16931   
     axis 0 0 0   XYZ
    dof rx ry rz
    limits (-20.0 45.0)
           (-30.0 30.0)
           (-30.0 30.0)
  end
  begin
     id 12 
     name upperback
     direction -0.00183968 0.999975 0.00684288   
     length 2.17221   
     axis 0 0 0   XYZ
    dof rx ry rz
    limits (-20.0 45.0)
           (-30.0 30.0)
           (-30.0 30.0)
  end
  begin
     id 13 
     name thorax
     direction -0.00950244 0.997208 0.0740685   
     length 2.22549   
     axis 0 0 0   XYZ
    dof rx ry rz
    limits (-20.0 45.0)
           (-30.0 30.0)
           (-30.0 30.0)
  end
  begin
     id 14 
     name lowerneck
     direction 0.0218238 0.996215 0.0841425   
     length 1.77269   
     axis 0 0 0   XYZ
    dof rx ry rz
    limits (-20.0 45.0)
           (-30.0 30.0)
           (-30.0 30.0)
  end
  begin
     id 15 
     name upperneck
     direction -0.00430652 0.994214 -0.107332   
     length 1.76534   
     axis 0 0 0   XYZ
    dof rx ry rz
    limits (-20.0 45.0)
           (-30.0 30.0)
           (-30.0 30.0)
  end
  begin
     id 16
     name head
     direction -0.00328946 0.998959 -0.0454998  
     length 1.82634  
     axis 0 0 0   XYZ
    dof rx ry rz
    limits (-20.0 45.0)
           (-30.0 30.0)
           (-30.0 30.0)
  end
  begin
     id 17 
     name lclavicle
     direction 0.970962 0.239191 0.00450212  
     length 3.84872  
     axis 0 0 0   XYZ
    dof ry rz
    limits (-20.0 10.0)
           (0.0 20.0)
  end
  begin
     id 18 
     name lhumerus
     direction 1 -4.48966e-011 5.74696e-028   
     length 5.22771   
     axis 180 -30 -90   XYZ
    dof rx ry rz
    limits (-60.0 90.0)
           (-90.0 90.0)
           (-90.0 90.0)
  end
  begin
     id 19
     name lradius
     direction 1 -4.4896e-011 4.25109e-027   
     length 3.45251   
     axis 180 -30 -90   XYZ
    dof rx
    limits (-10.0 170.0)
  end
  begin
     id 20
     name lwrist
     direction 1 -4.48971e-011 1.15382e-027   
     length 1.72626   
     axis -5.52449e-016 90 90   XYZ
    dof ry
    limits (-180.0 0.0)
 end
  begin
     id 21 
     name lhand
     direction 1 -4.49034e-011 2.30765e-027   
     length 0.552119   
     axis -1.47248e-015 90 90   XYZ
    dof rx rz
    limits (-90.0 90.0)
           (-45.0 45.0)
  end
  begin
     id 22 
     name lfingers
     direction 1 -4.48951e-011 4.61529e-027   
     length 0.445133   
     axis -2.94495e-015 90 90   XYZ
    dof rx
    limits (0.0 90.0)
  end
  begin
     id 23
     name lthumb
     direction 0.707107 -6.34991e-011 0.707107   
     length 0.639124   
     axis -90 45 2.85299e-015   XYZ
    dof rx rz
    limits (-45.0 45.0)
           (-45.0 45.0)
  end
  begin
     id 24 
     name rclavicle
     direction -0.97424 0.222511 -0.0366699   
     length 3.73439  
     axis 0 0 0   XYZ 
    dof ry rz
    limits (-10.0 20.0)
           (-20.0 0.0)
  end
  begin
     id 25 
     name rhumerus
     direction -1 -4.48956e-011 -4.97258e-028  
     length 5.2398   
     axis 180 30 90   XYZ
    dof rx ry rz
    limits (-90.0 60.0)
           (-90.0 90.0)
           (-90.0 90.0)
  end
  begin
     id 26 
     name rradius
     direction -1 -4.4897e-011 -1.72611e-027   
     length 3.48042   
     axis 180 30 90   XYZ
    dof rx
    limits (-10.0 170.0)
  end
  begin
     id 27 
     name rwrist
     direction -1 -4.48976e-011 1.15382e-027   
     length 1.74021   
     axis -5.52449e-016 -90 -90   XYZ
    dof ry
    limits (-180.0 0.0)
  end
  begin
     id 28
     name rhand
     direction -1 -4.48963e-011 2.30765e-027   
     length 0.618713   
     axis -1.47248e-015 -90 -90   XYZ
    dof rx rz
    limits (-90.0 90.0)
           (-45.0 45.0)
  end
  begin
     id 29
     name rfingers
     direction -1 -4.4888e-011 4.61529e-027   
     length 0.498823   
     axis -2.94495e-015 -90 -90   XYZ
    dof rx
    limits (0.0 90.0)
  end
  begin
     id 30
     name rthumb
     direction -0.707107 -6.34968e-011 0.707107   
     length 0.716213   
     axis -90 -45 -2.85299e-015   XYZ
    dof rx rz
    limits (-45.0 45.0)
           (-45.0 45.0)
  end
:hierarchy
  begin
    root lhipjoint rhipjoint lowerback
    lhipjoint lfemur
    lfemur ltibia
    ltibia lfoot
    lfoot ltoes
    rhipjoint rfemur
    rfemur rtibia
    rtibia rfoot
    rfoot rtoes
    lowerback upperback
    upperback thorax
    thorax lowerneck lclavicle rclavicle
    lowerneck upperneck
    upperneck head
    lclavicle lhumerus
    lhumerus lradius
    lradius lwrist
    lwrist lhand lthumb
    lhand lfingers
    rclavicle rhumerus
    rhumerus rradius
    rradius rwrist
    rwrist rhand rthumb
    rhand rfingers
  end

#!OML:ASF G:\JayActor3\Patient Classification 1\Patient 1\Session 5\male.ASF
:FULLY-SPECIFIED
:DEGREES
278
root 5.97346 16.3713 -5.50408 84.6488 -86.3473 267.087
lowerback 19.0835 -0.838781 -0.394261
upperback 4.2987 -1.52575 -1.2169
thorax -6.06205 -0.854916 -0.701366
lowerneck 4.84336 1.57494 0.645101
upperneck -48.2887 -4.23514 -4.69313
head -19.8353 -2.57031 -1.3098
rclavicle 3.37934e-015 5.56597e-015
rhumerus -19.899 -45.5333 -10.7868
rradius 72.6379
rwrist -82.5253
rhand -19.639 -21.2136
rfingers 7.12502
rthumb 6.68836 -51.088
lclavicle 3.37934e-015 5.56597e-015
lhumerus 4.37258 53.4676 23.9003
lradius 95.2331
lwrist 118.146
lhand -13.0504 23.8004
lfingers 7.12502
lthumb 13.0446 53.3725
rfemur -39.7582 -23.1859 7.09747
rtibia 88.8549
rfoot 1.12203 2.72169
rtoes -4.77755
lfemur -6.37473 17.7628 -11.7466
ltibia 36.871
lfoot -19.9947 10.2852
ltoes -7.70182
279
root 5.99107 16.3409 -5.48312 88.0101 -86.5931 263.437
lowerback 19.5275 -0.792722 -0.459154
upperback 4.50649 -1.52968 -1.58598
thorax -6.08298 -0.866768 -1.0528
lowerneck 4.77565 1.68167 0.429751
upperneck -48.4378 -4.11574 -4.60193
head -19.9104 -2.49958 -1.24537
rclavicle 8.94531e-015 7.95139e-015
rhumerus -20.6676 -44.5769 -10.6781
rradius 74.7726
rwrist -83.3467
rhand -17.9924 -20.9717
rfingers 7.12502
rthumb 8.27771 -50.7896
lclavicle 8.94531e-015 7.95139e-015
lhumerus 4.79331 53.1667 24.0829
lradius 97.6771
lwrist 118.632
lhand -11.3656 23.8253
lfingers 7.12502
lthumb 14.6683 53.2865
rfemur -41.1858 -24.0513 6.55661
rtibia 91.1947
rfoot 1.58585 3.09863
rtoes -4.97028
lfemur -6.33096 18.0599 -11.9659
ltibia 37.3696
lfoot -20.225 10.2701
ltoes -7.72992
280
root 6.00791 16.3093 -5.46325 92.0327 -86.8284 259.11
lowerback 19.9587 -0.744851 -0.514116
upperback 4.72906 -1.53333 -1.96478
thorax -6.08044 -0.879583 -1.42196
lowerneck 4.7399 1.79772 0.20872
upperneck -48.5454 -3.96766 -4.5216
head -19.9641 -2.41075 -1.1902
rclavicle 4.57205e-015 7.15625e-015
rhumerus -21.3736 -43.5942 -10.6071
rradius 76.9119
rwrist -84.0677
rhand -16.2694 -20.7509
rfingers 7.12502
rthumb 9.94026 -50.4962
lclavicle 4.57205e-015 7.15625e-015
lhumerus 5.25807 52.7954 24.281
lradius 100.077
lwrist 119.028
lhand -9.62508 23.8591
lfingers 7.12502
lthumb 16.3447 53.1903
rfemur -42.5733 -24.918 6.01613
rtibia 93.4819
rfoot 2.00306 3.46633
rtoes -5.13808
lfemur -6.26775 18.3515 -12.179
ltibia 37.8743
lfoot -20.4615 10.2632
ltoes -7.76193
281
root 6.02389 16.2767 -5.44443 96.8194 -87.0488 254.004
lowerback 20.3763 -0.695492 -0.559842
upperback 4.9663 -1.53699 -2.35249
thorax -6.05405 -0.893418 -1.80759
lowerneck 4.73842 1.92395 -0.0163776
upperneck -48.6112 -3.7893 -4.45318
head -19.9964 -2.30336 -1.14552
rclavicle 5.56597e-015 6.36111e-015
rhumerus -22.0131 -42.5844 -10.5742
rradius 79.0537
rwrist -84.6872
rhand -14.4711 -20.5449
rfingers 7.12502
rthumb 11.6749 -50.1996
lclavicle 5.56597e-015 6.36111e-015
lhumerus 5.75371 52.3474 24.4814
lradius 102.432
lwrist 119.341
lhand -7.83044 23.8873
lfingers 7.12502
lthumb 18.072 53.0677
rfemur -43.912 -25.7863 5.47396
rtibia 95.7064
rfoot 2.37262 3.82634
rtoes -5.27175
lfemur -6.1814 18.6358 -12.3868
ltibia 38.3789
lfoot -20.7013 10.265
ltoes -7.79719
282
root 6.03894 16.2435 -5.4267 102.501 -87.2437 247.988
lowerback 20.7786 -0.644286 -0.594895
upperback 5.21757 -1.53938 -2.74652
thorax -6.00347 -0.907548 -2.20813
lowerneck 4.77394 2.06118 -0.242396
upperneck -48.6355 -3.58003 -4.39947
head -20.0086 -2.17739 -1.11359
rclavicle 3.37934e-015 1.90833e-014
rhumerus -22.5821 -41.5466 -10.5787
rradius 81.1957
rwrist -85.2044
rhand -12.6064 -20.3511
rfingers 7.12502
rthumb 13.4726 -49.8954
lclavicle 3.37934e-015 1.90833e-014
lhumerus 6.27594 51.8168 24.6827
lradius 104.738
lwrist 119.572
lhand -5.98855 23.9353
lfingers 7.12502
lthumb 19.8434 52.9423
rfemur -45.197 -26.6514 4.93551
rtibia 97.8583
rfoot 2.69253 4.17784
rtoes -5.37975
lfemur -6.06999 18.9129 -12.5856
ltibia 38.8778
lfoot -20.9424 10.2756
ltoes -7.83361
283
root 6.053 16.2099 -5.41003 109.135 -87.4074 241.004
lowerback 21.1652 -0.59107 -0.621628
upperback 5.48218 -1.54048 -3.14622
thorax -5.92913 -0.921813 -2.6216
lowerneck 4.84801 2.21056 -0.467824
upperneck -48.6165 -3.33756 -4.36113
head -19.9998 -2.03206 -1.09552
rclavicle 1.96797e-014 2.54444e-014
rhumerus -23.0778 -40.4789 -10.6199
rradius 83.3354
rwrist -85.6187
rhand -10.6785 -20.1625
rfingers 7.12502
rthumb 15.3302 -49.5742
lclavicle 1.96797e-014 2.54444e-014
lhumerus 6.81209 51.1948 24.8724
lradius 106.996
lwrist 119.726
lhand -4.1022 23.9972
lfingers 7.12502
lthumb 21.6558 52.8061
rfemur -46.4205 -27.5111 4.39657
rtibia 99.9282
rfoot 2.9637 4.52102
rtoes -5.44852
lfemur -5.9303 19.1808 -12.7784
ltibia 39.3653
lfoot -21.1822 10.2962
ltoes -7.8746
284
root 6.06603 16.1762 -5.39443 116.694 -87.5274 233.082
lowerback 21.5354 -0.535906 -0.638662
upperback 5.75817 -1.53958 -3.54936
thorax -5.83264 -0.935694 -3.0467
lowerneck 4.96361 2.37332 -0.688491
upperneck -48.5528 -3.05986 -4.34046
head -19.97 -1.86693 -1.09366
rclavicle -2.18663e-015 3.02153e-014
rhumerus -23.4971 -39.3753 -10.6979
rradius 85.4711
rwrist -85.9314
rhand -8.69662 -19.9694
rfingers 7.12502
rthumb 17.2385 -49.2248
lclavicle -2.18663e-015 3.02153e-014
lhumerus 7.35344 50.4722 25.0437
lradius 109.202
lwrist 119.803
lhand -2.17479 24.073
lfingers 7.12502
lthumb 23.5057 52.6569
rfemur -47.5765 -28.3591 3.86265
rtibia 101.906
rfoot 3.18738 4.85371
rtoes -5.48105
lfemur -5.76171 19.4401 -12.9618
ltibia 39.8369
lfoot -21.4183 10.3271
ltoes -7.91917
285
root 6.07798 16.1426 -5.37986 124.958 -87.5935 224.443
lowerback 21.8878 -0.4788 -0.644204
upperback 6.04533 -1.5358 -3.95402
thorax -5.71339 -0.948616 -3.48267
lowerneck 5.11915 2.55025 -0.903262
upperneck -48.4428 -2.74588 -4.33772
head -19.9179 -1.68181 -1.10855
rclavicle 9.93923e-015 3.33958e-014
rhumerus -23.8368 -38.237 -10.8126
rradius 87.6004
rwrist -86.1412
rhand -6.66189 -19.7731
rfingers 7.12502
rthumb 19.196 -48.8458
lclavicle 9.93923e-015 3.33958e-014
lhumerus 7.89286 49.6433 25.1901
lradius 111.355
lwrist 119.804
lhand -0.214271 24.1706
lfingers 7.12502
lthumb 25.3851 52.5007
rfemur -48.658 -29.1898 3.33569
rtibia 103.784
rfoot 3.36464 5.17491
rtoes -5.4836
lfemur -5.56295 19.6898 -13.1342
ltibia 40.2885
lfoot -21.6491 10.3683
ltoes -7.96679
286
root 6.08882 16.1093 -5.36633 133.542 -87.5984 215.474
lowerback 22.2208 -0.419399 -0.63872
upperback 6.34288 -1.5282 -4.35766
thorax -5.5712 -0.959909 -3.92688
lowerneck 5.3124 2.74243 -1.1109
upperneck -48.2843 -2.39451 -4.35385
head -19.8415 -1.47638 -1.14102
rclavicle -5.96354e-015 -2.70347e-014
rhumerus -24.0931 -37.0598 -10.9633
rradius 89.7207
rwrist -86.2449
rhand -4.58333 -19.5627
rfingers 7.12502
rthumb 21.1937 -48.4242
lclavicle -5.96354e-015 -2.70347e-014
lhumerus 8.422 48.702 25.3058
lradius 113.453
lwrist 119.724
lhand 1.77241 24.2953
lfingers 7.12502
lthumb 27.2869 52.3409
rfemur -49.6597 -29.9946 2.81844
rtibia 105.552
rfoot 3.49746 5.48257
rtoes -5.45175
lfemur -5.33441 19.9293 -13.2948
ltibia 40.7171
lfoot -21.8735 10.4195
ltoes -8.01619
287
root 6.09855 16.0766 -5.3538 141.975 -87.5404 206.647
lowerback 22.5339 -0.357444 -0.622566
upperback 6.64918 -1.51609 -4.75907
thorax -5.40736 -0.969014 -4.37806
lowerneck 5.54201 2.95038 -1.30806
upperneck -48.0745 -2.00498 -4.38963
head -19.739 -1.25077 -1.19205
rclavicle -8.74653e-015 3.65764e-014
rhumerus -24.266 -35.8421 -11.1485
rradius 91.8301
rwrist -86.2472
rhand -2.46084 -19.3437
rfingers 7.12502
rthumb 23.2313 -47.9625
lclavicle -8.74653e-015 3.65764e-014
lhumerus 8.93299 47.64 25.3831
lradius 115.495
lwrist 119.556
lhand 3.77797 24.4508
lfingers 7.12502
lthumb 29.2037 52.1793
rfemur -50.577 -30.7655 2.31113
rtibia 107.205
rfoot 3.58846 5.77751
rtoes -5.38424
lfemur -5.07658 20.1592 -13.4442
ltibia 41.1202
lfoot -22.0901 10.4807
ltoes -8.06699
288
root 6.10716 16.0447 -5.34222 149.781 -87.4219 198.441
lowerback 22.8258 -0.293151 -0.594583
upperback 6.96266 -1.49888 -5.15584
thorax -5.22279 -0.9754 -4.83452
lowerneck 5.80645 3.17462 -1.49217
upperneck -47.8111 -1.57715 -4.44588
head -19.609 -1.00523 -1.26227
rclavicle -1.98785e-015 -1.43125e-014
rhumerus -24.3542 -34.5762 -11.3672
rradius 93.9268
rwrist -86.1451
rhand -0.303163 -19.1037
rfingers 7.12502
rthumb 25.3 -47.4459
lclavicle -1.98785e-015 -1.43125e-014
lhumerus 9.4166 46.4502 25.4145
lradius 117.477
lwrist 119.293
lhand 5.79392 24.6431
lfingers 7.12502
lthumb 31.1269 52.0203
rfemur -51.4058 -31.4914 1.81737
rtibia 108.734
rfoot 3.64158 6.05491
rtoes -5.28323
lfemur -4.79057 20.3785 -13.5809
ltibia 41.4951
lfoot -22.2978 10.5521
ltoes -8.11818
